<svg width="227" height="141" viewBox="0 0 227 141" fill="none" xmlns="http://www.w3.org/2000/svg">
<path d="M11.7994 66.6752C10.7769 57.1912 8.62895 60.4874 9.31221 50.9452C9.31221 41.5987 8.49703 26.6168 19.261 22.6447C21.5473 21.801 22.9155 19.9014 25.7067 19.5188C32.4353 18.5966 38.5955 16.0451 45.6043 15.3847C67.1612 13.3533 88.0412 17.2765 109.501 15.9897C115.912 15.6052 122.415 15.8552 128.838 15.8552C135.882 15.8552 142.722 13.7776 149.822 14.0738C157.932 14.4122 166.081 15.9065 174.238 16.3258C182.204 16.7352 190.204 17.5542 198.129 18.4097C201.071 18.7272 211.177 18.6531 209.129 24.0563C207.807 27.5443 201.933 33.4561 198.48 35.3497C195.56 36.9503 193.721 39.7639 190.528 40.9627C187.223 42.2035 184.109 43.7998 180.859 45.1641C173.838 48.1115 166.417 51.6717 158.895 53.2308C148.865 55.3094 138.511 55.5375 128.453 57.6002C119.816 59.3714 111.206 60.5098 102.495 61.8688C87.8745 64.1497 73.7945 70.0014 59.1964 71.8513C54.5369 72.4418 49.7692 72.7782 45.3942 74.5402C43.5596 75.279 41.8555 76.0158 39.9293 76.4896L39.8287 76.5144C31.4962 78.5643 23.1808 80.61 15.0573 83.3463C10.0161 85.0443 12.0732 83.5061 12.43 80.2541C12.9127 75.8537 12.2634 70.9785 11.7994 66.6752Z" fill="#E99620"/>
<path d="M9.31221 50.9452C7.07053 56.3222 9.72158 45.2281 9.31221 50.9452ZM9.31221 50.9452C8.62895 60.4874 10.7769 57.1912 11.7994 66.6752C12.2634 70.9785 12.9127 75.8537 12.43 80.2541C12.0732 83.5061 10.0161 85.0443 15.0573 83.3463C23.2134 80.599 31.5631 78.5479 39.9293 76.4896C41.8555 76.0158 43.5596 75.279 45.3942 74.5402C49.7692 72.7782 54.5369 72.4418 59.1964 71.8513C73.7945 70.0014 87.8745 64.1497 102.495 61.8688C111.206 60.5098 119.816 59.3714 128.453 57.6002C138.511 55.5375 148.865 55.3094 158.895 53.2308C166.417 51.6717 173.838 48.1115 180.859 45.1641C184.109 43.7998 187.223 42.2035 190.528 40.9627C193.721 39.7639 195.56 36.9503 198.48 35.3497C201.933 33.4561 207.807 27.5443 209.129 24.0563C211.177 18.6531 201.071 18.7272 198.129 18.4097C190.204 17.5542 182.204 16.7352 174.238 16.3258C166.081 15.9065 157.932 14.4122 149.822 14.0738C142.722 13.7776 135.882 15.8552 128.838 15.8552C122.415 15.8552 115.912 15.6052 109.501 15.9897C88.0412 17.2765 67.1612 13.3533 45.6043 15.3847C38.5955 16.0451 32.4353 18.5966 25.7067 19.5188C22.9155 19.9014 21.5473 21.801 19.261 22.6447C8.49703 26.6168 9.31221 41.5987 9.31221 50.9452Z" stroke="black" stroke-width="5" stroke-linecap="round"/>
<path d="M12.2681 68.7873C12.2681 52.0377 1.95323 34.5929 13.3942 18.7414C28.9544 -2.8176 58.4582 14.8317 81.3315 14.2998C104.248 13.7669 127.221 14.2372 150.145 14.2372C166.963 14.2372 182.734 14.2872 199.19 17.6153C208.918 19.5829 215.782 19.7216 212.452 31.378C209.809 40.6276 212.702 51.0582 212.702 60.5922C212.702 72.9943 215.633 85.9233 217.269 98.1892C218.354 106.333 220.069 118.182 214.078 124.839C210.919 128.349 203.049 128.343 198.314 129.718C192.928 131.282 188.186 132.471 182.549 132.471C176.136 132.471 169.609 132.9 163.219 132.408C158.703 132.061 154.838 130.219 150.145 130.219C131.421 130.219 112.713 127.967 93.9055 127.967H55.9332C44.7296 127.967 34.929 131.316 23.5285 129.343C16.7676 128.173 15.6462 126.105 15.6462 119.521C15.6462 114.899 15.0143 109.49 14.4576 104.758C13.9002 100.02 13.023 94.9556 12.0179 90.307C10.4961 83.2685 12.2681 75.9571 12.2681 68.7873Z" stroke="black" stroke-width="16" stroke-linecap="round"/>
<path d="M20.2096 109.68C19.1931 109.979 17.9735 114.529 17.1566 115.264C16.414 117.492 17.0371 118.571 17.1566 120.961C17.1948 121.725 18.2095 122.525 18.6459 123.046C19.7022 124.307 20.1893 125.644 20.9915 127.03C21.528 127.956 25.4996 128.601 26.6508 129.152C30.1045 130.804 33.488 130.071 37.1688 129.655C48.2537 128.4 59.699 128.061 70.8452 127.998C82.2174 127.933 94.1961 127.05 105.471 128.891C115.04 130.454 124.708 130.008 134.382 130.008C141.855 130.008 149.39 130.486 156.851 130.269C165.412 130.02 173.959 130.008 182.523 130.008C188.598 130.008 194.868 130.419 200.822 128.984C203.776 128.273 206.178 127.338 207.71 124.907C209.714 121.73 214.524 119.439 214.524 115.432C214.524 112.285 213.318 109.197 213.183 106.031C213.04 102.666 211.947 99.1965 211.545 95.8292C211.002 91.2808 210.99 86.9005 210.763 82.314C210.564 78.2797 209.629 74.4003 209.162 70.3997C208.991 68.9299 208.97 66.9652 208.418 65.5596C208.152 64.8833 205.498 65.8143 205.234 65.876C203.202 66.3527 201.172 66.8368 199.296 67.7562C197.085 68.8399 195.016 70.2979 192.743 71.1816C187.188 73.3419 181.015 73.5432 175.449 75.9287C171.728 77.5233 168.188 79.8506 164.335 81.0481C155.98 83.6447 147.141 84.415 138.831 87.1169C134.624 88.485 130.395 89.1149 126.023 89.7976C120.342 90.6849 114.792 92.1062 109.138 93.1113C98.086 95.0762 86.929 95.8686 75.8343 97.5047C61.2914 99.6493 45.9759 101.066 32.0122 105.845C28.0926 107.186 24.1848 108.51 20.2096 109.68Z" fill="#008E00" stroke="black" stroke-width="5" stroke-linecap="round"/>
<path d="M108.5 121C134.754 121 156 99.489 156 73C156 46.511 134.754 25 108.5 25C82.2459 25 61 46.511 61 73C61 99.489 82.2459 121 108.5 121Z" fill="white" stroke="black" stroke-width="4"/>
<path d="M126.528 49H134.809L116.719 69.3333L138 97H121.336L108.287 80.2187L93.3528 97H85.0638L104.415 75.2533L84 49H101.086L112.885 64.3387L126.528 49ZM123.622 92.1253H128.213L98.5908 53.6187H93.666L123.622 92.1253Z" fill="black"/>
</svg>
