<svg width="227" height="141" viewBox="0 0 227 141" fill="none" xmlns="http://www.w3.org/2000/svg">
<path d="M11.7994 66.6752C10.7769 57.1912 8.62895 60.4874 9.31221 50.9452C9.31221 41.5987 8.49703 26.6168 19.261 22.6447C21.5473 21.801 22.9155 19.9014 25.7067 19.5188C32.4353 18.5966 38.5955 16.0451 45.6043 15.3847C67.1612 13.3533 88.0412 17.2765 109.501 15.9897C115.912 15.6052 122.415 15.8552 128.838 15.8552C135.882 15.8552 142.722 13.7776 149.822 14.0738C157.932 14.4122 166.081 15.9065 174.238 16.3258C182.204 16.7352 190.204 17.5542 198.129 18.4097C201.071 18.7272 211.177 18.6531 209.129 24.0563C207.807 27.5443 201.933 33.4561 198.48 35.3497C195.56 36.9503 193.721 39.7639 190.528 40.9627C187.223 42.2035 184.109 43.7998 180.859 45.1641C173.838 48.1115 166.417 51.6717 158.895 53.2308C148.865 55.3094 138.511 55.5375 128.453 57.6002C119.816 59.3714 111.206 60.5098 102.495 61.8688C87.8745 64.1497 73.7945 70.0014 59.1964 71.8513C54.5369 72.4418 49.7692 72.7782 45.3942 74.5402C43.5596 75.279 41.8555 76.0158 39.9293 76.4896L39.8287 76.5144C31.4962 78.5643 23.1808 80.61 15.0573 83.3463C10.0161 85.0443 12.0732 83.5061 12.43 80.2541C12.9127 75.8537 12.2634 70.9785 11.7994 66.6752Z" fill="#E99620"/>
<path d="M9.31221 50.9452C7.07053 56.3222 9.72158 45.2281 9.31221 50.9452ZM9.31221 50.9452C8.62895 60.4874 10.7769 57.1912 11.7994 66.6752C12.2634 70.9785 12.9127 75.8537 12.43 80.2541C12.0732 83.5061 10.0161 85.0443 15.0573 83.3463C23.2134 80.599 31.5631 78.5479 39.9293 76.4896C41.8555 76.0158 43.5596 75.279 45.3942 74.5402C49.7692 72.7782 54.5369 72.4418 59.1964 71.8513C73.7945 70.0014 87.8745 64.1497 102.495 61.8688C111.206 60.5098 119.816 59.3714 128.453 57.6002C138.511 55.5375 148.865 55.3094 158.895 53.2308C166.417 51.6717 173.838 48.1115 180.859 45.1641C184.109 43.7998 187.223 42.2035 190.528 40.9627C193.721 39.7639 195.56 36.9503 198.48 35.3497C201.933 33.4561 207.807 27.5443 209.129 24.0563C211.177 18.6531 201.071 18.7272 198.129 18.4097C190.204 17.5542 182.204 16.7352 174.238 16.3258C166.081 15.9065 157.932 14.4122 149.822 14.0738C142.722 13.7776 135.882 15.8552 128.838 15.8552C122.415 15.8552 115.912 15.6052 109.501 15.9897C88.0412 17.2765 67.1612 13.3533 45.6043 15.3847C38.5955 16.0451 32.4353 18.5966 25.7067 19.5188C22.9155 19.9014 21.5473 21.801 19.261 22.6447C8.49703 26.6168 9.31221 41.5987 9.31221 50.9452Z" stroke="black" stroke-width="5" stroke-linecap="round"/>
<path d="M12.2681 68.7873C12.2681 52.0377 1.95323 34.5929 13.3942 18.7414C28.9544 -2.8176 58.4582 14.8317 81.3315 14.2998C104.248 13.7669 127.221 14.2372 150.145 14.2372C166.963 14.2372 182.734 14.2872 199.19 17.6153C208.918 19.5829 215.782 19.7216 212.452 31.378C209.809 40.6276 212.702 51.0582 212.702 60.5922C212.702 72.9943 215.633 85.9233 217.269 98.1892C218.354 106.333 220.069 118.182 214.078 124.839C210.919 128.349 203.049 128.343 198.314 129.718C192.928 131.282 188.186 132.471 182.549 132.471C176.136 132.471 169.609 132.9 163.219 132.408C158.703 132.061 154.838 130.219 150.145 130.219C131.421 130.219 112.713 127.967 93.9055 127.967H55.9332C44.7296 127.967 34.929 131.316 23.5285 129.343C16.7676 128.173 15.6462 126.105 15.6462 119.521C15.6462 114.899 15.0143 109.49 14.4576 104.758C13.9002 100.02 13.023 94.9556 12.0179 90.307C10.4961 83.2685 12.2681 75.9571 12.2681 68.7873Z" stroke="black" stroke-width="16" stroke-linecap="round"/>
<path d="M20.2096 109.68C19.1931 109.979 17.9735 114.529 17.1566 115.264C16.414 117.492 17.0371 118.571 17.1566 120.961C17.1948 121.725 18.2095 122.525 18.6459 123.046C19.7022 124.307 20.1893 125.644 20.9915 127.03C21.528 127.956 25.4996 128.601 26.6508 129.152C30.1045 130.804 33.488 130.071 37.1688 129.655C48.2537 128.4 59.699 128.061 70.8452 127.998C82.2174 127.933 94.1961 127.05 105.471 128.891C115.04 130.454 124.708 130.008 134.382 130.008C141.855 130.008 149.39 130.486 156.851 130.269C165.412 130.02 173.959 130.008 182.523 130.008C188.598 130.008 194.868 130.419 200.822 128.984C203.776 128.273 206.178 127.338 207.71 124.907C209.714 121.73 214.524 119.439 214.524 115.432C214.524 112.285 213.318 109.197 213.183 106.031C213.04 102.666 211.947 99.1965 211.545 95.8292C211.002 91.2808 210.99 86.9005 210.763 82.314C210.564 78.2797 209.629 74.4003 209.162 70.3997C208.991 68.9299 208.97 66.9652 208.418 65.5596C208.152 64.8833 205.498 65.8143 205.234 65.876C203.202 66.3527 201.172 66.8368 199.296 67.7562C197.085 68.8399 195.016 70.2979 192.743 71.1816C187.188 73.3419 181.015 73.5432 175.449 75.9287C171.728 77.5233 168.188 79.8506 164.335 81.0481C155.98 83.6447 147.141 84.415 138.831 87.1169C134.624 88.485 130.395 89.1149 126.023 89.7976C120.342 90.6849 114.792 92.1062 109.138 93.1113C98.086 95.0762 86.929 95.8686 75.8343 97.5047C61.2914 99.6493 45.9759 101.066 32.0122 105.845C28.0926 107.186 24.1848 108.51 20.2096 109.68Z" fill="#008E00" stroke="black" stroke-width="5" stroke-linecap="round"/>
<path d="M108.5 118C133.099 118 153 97.8307 153 73C153 48.1693 133.099 28 108.5 28C83.9013 28 64 48.1693 64 73C64 97.8307 83.9013 118 108.5 118Z" fill="white" stroke="black" stroke-width="4"/>
<g clip-path="url(#clip0_203_77)">
<path fill-rule="evenodd" clip-rule="evenodd" d="M105.346 50.8534C102.335 52.4033 99.8715 53.7149 99.872 53.7682C99.8733 53.9059 107.098 57.5216 107.355 57.5128C107.471 57.5089 108.318 57.124 109.235 56.6575L110.903 55.8095L112.726 56.735L114.548 57.6608L117.532 56.3358C122.028 54.3392 122.495 54.1204 122.422 54.0469C122.325 53.9494 120.712 53.0932 116.337 50.8169C114.222 49.7167 112.17 48.6381 111.776 48.4198C111.382 48.2015 111.005 48.0259 110.94 48.0293C110.874 48.0327 108.357 49.3036 105.346 50.8534ZM92.14 57.611L89.0057 59.2108V66.2322C89.0057 70.094 89.0468 73.2536 89.0973 73.2536C89.1476 73.2536 90.6897 72.593 92.5241 71.7857L95.8593 70.3177V62.9167L97.4891 63.7942C98.745 64.4697 100.002 65.1439 101.259 65.8167L103.399 66.9617L104.352 66.5362C104.949 66.2689 105.545 65.999 106.14 65.7265C106.599 65.5149 107.728 65.0127 108.647 64.6102C109.566 64.2075 110.418 63.8026 110.538 63.7103C110.699 63.5878 108.744 62.5203 103.308 59.762C99.2109 57.6828 95.7271 55.9883 95.5664 55.9964C95.4058 56.0045 93.8639 56.731 92.14 57.611ZM122.987 58.0603C120.852 59.0126 119.104 59.8298 119.102 59.8764C119.1 59.9229 120.264 60.6065 121.688 61.3953C123.112 62.1842 124.277 62.8718 124.277 62.9236C124.277 62.9753 123.017 63.5786 121.477 64.2646C119.937 64.9504 116.044 66.6876 112.826 68.125L102.044 72.941C99.3321 74.1526 96.8873 75.2446 96.6115 75.3681C91.0718 77.8462 89.5491 78.5339 89.34 78.6519C89.1297 78.7708 89.0821 79.4612 89.0447 82.9264L89 87.0593L91.8028 88.4705L94.6056 89.8817L98.4921 88.1484C100.63 87.1952 102.379 86.3653 102.379 86.3042C102.379 86.2433 101.984 85.9889 101.501 85.7388C101.018 85.4887 100.022 84.935 99.2861 84.5081C98.5506 84.0812 97.8173 83.6895 97.6563 83.6376C97.4953 83.5858 97.3659 83.4952 97.3686 83.4361C97.3713 83.3771 99.0827 82.5738 101.172 81.6508C105.229 79.8582 108.334 78.4767 114.999 75.4979C117.98 74.1662 120.961 72.8353 123.942 71.5052C126.563 70.3365 129.609 68.9715 130.712 68.472L132.718 67.5637L132.763 63.3837L132.808 59.2039L129.965 57.762C128.401 56.9691 127.065 56.3222 126.995 56.3246C126.925 56.3268 125.121 57.1077 122.987 58.0603ZM131.957 73.14C131.538 73.3422 130.71 73.7208 130.118 73.9812C129.526 74.2416 128.401 74.7429 127.62 75.0952L126.199 75.7357L126.167 79.4053C126.149 81.4235 126.074 83.0659 126 83.0552C125.831 83.0305 123.168 81.6809 120.491 80.2634C118.559 79.2405 118.438 79.1999 117.984 79.422C117.721 79.5506 116.153 80.2458 114.498 80.9673C112.843 81.6887 111.435 82.3261 111.369 82.3838C111.303 82.4414 114.633 84.2253 118.77 86.3482L126.292 90.208L129.505 88.5655C131.272 87.6622 132.775 86.8383 132.844 86.7346C133 86.5016 132.987 72.7404 132.831 72.759C132.769 72.7663 132.376 72.9378 131.957 73.14ZM114.163 89.2923C113.606 89.529 113.049 89.7662 112.492 90.0036C110.81 90.7228 111.139 90.7466 109.138 89.7621C107.805 89.1065 107.231 88.9042 106.981 89.0024C106.794 89.076 105.184 89.7918 103.403 90.5929C101.622 91.394 100.104 92.0495 100.028 92.0495C99.2809 92.0495 100.523 92.7828 105.316 95.1721L110.938 97.9739L113.303 96.8201C114.604 96.1854 117.227 94.9146 119.133 93.996C121.039 93.0772 122.575 92.3016 122.547 92.2723C122.518 92.2432 120.921 91.4328 118.997 90.4715L115.501 88.7238L114.163 89.2923Z" fill="black"/>
</g>
<defs>
<clipPath id="clip0_203_77">
<rect width="44" height="50" fill="white" transform="translate(89 48)"/>
</clipPath>
</defs>
</svg>
