<svg width="376" height="382" viewBox="0 0 376 382" fill="none" xmlns="http://www.w3.org/2000/svg">
<path d="M89.115 185.76C96.6483 181.475 103.748 179.125 110.413 178.708C117.195 178.225 121.706 179.954 123.948 183.895C124.937 185.633 125.33 187.403 125.128 189.206C125.042 190.942 124.129 192.305 122.391 193.293C120.768 194.216 116.451 194.985 109.437 195.599C102.358 196.098 96.5004 197.666 91.8645 200.303C87.3445 202.874 83.4747 206.992 80.2551 212.658C77.0355 218.325 76.6122 223.244 78.9854 227.416C82.2156 233.095 87.5442 235.586 94.9711 234.89C100.496 234.355 107.834 232.559 116.986 229.501C126.071 226.327 134.606 225.691 142.59 227.592C150.508 229.377 157.236 235.138 162.774 244.873C171.212 259.708 172.979 273.198 168.076 285.344C165.334 292.119 159.385 298.11 150.229 303.318C141.189 308.46 130.732 311.11 118.857 311.268C111.167 311.501 106.432 310.053 104.652 306.924C103.992 305.765 103.731 304.226 103.867 302.308C104.119 300.324 104.851 298.374 106.062 296.458C107.273 294.542 108.771 293.536 110.558 293.441C112.394 293.163 115.396 292.913 119.564 292.689C123.732 292.466 126.734 292.216 128.571 291.938C134.493 291.024 139.598 289.347 143.886 286.908C148.175 284.469 151.102 280.043 152.67 273.629C154.287 267.033 153.349 260.664 149.855 254.522C145.24 246.409 137.954 243.037 127.995 244.407C123.132 245.026 117.978 246.347 112.533 248.37C101.163 252.383 91.6509 253.728 83.9964 252.407C76.2761 250.969 69.9108 245.846 64.9008 237.038C59.8907 228.23 59.735 219.191 64.4337 209.923C69.0664 200.539 77.2935 192.484 89.115 185.76ZM163.671 216.522C161.455 216.402 159.787 215.356 158.666 213.386C157.545 211.416 157.161 209.257 157.513 206.909C150.457 195.583 143.27 183.488 135.953 170.623C135.066 167.446 134.956 164.825 135.621 162.759C136.403 160.627 138.086 158.596 140.669 156.666C156.363 148.66 173.134 139.581 190.982 129.429C195.914 127.851 199.204 128.511 200.852 131.408C203.62 136.276 200.484 141.818 191.442 148.035C188.958 149.601 186.209 151.241 183.196 152.955L171.896 159.383C169.694 160.635 163.346 163.633 152.851 168.375C161.091 182.862 166.992 192.697 170.554 197.881C176.763 194.503 188.617 187.837 206.118 177.882C210.751 176.32 213.925 177.046 215.639 180.059C217.287 182.957 216.892 186.173 214.454 189.707C214.238 190.137 213.733 190.731 212.937 191.49L182.566 208.075C180.711 209.13 179.27 210.103 178.243 210.994L195.947 240.5C199.77 247.222 202.332 252.13 203.632 255.226L243.668 231.763C247.706 230.233 250.45 230.743 251.901 233.293C252.889 235.031 253.067 237.231 252.433 239.893C251.915 242.488 250.745 244.611 248.923 246.261L204.814 272.27C202.148 273.787 200.03 274.378 198.46 274.044C196.823 273.594 195.346 272.21 194.028 269.892C192.645 266.383 189.911 261.036 185.824 253.851L178.902 241.682L163.671 216.522ZM281.467 218.777C282.653 220.863 282.814 223.302 281.948 226.096C281.017 228.773 279.45 230.738 277.248 231.99C275.162 233.177 272.922 232.61 270.529 230.29C261.479 215.19 252.637 200.048 244.001 184.866L218.561 141.353C213.551 132.545 214.006 124.31 219.925 116.648C224.535 110.191 231.129 104.523 239.705 99.645C244.109 97.1399 249.429 95.5711 255.665 94.9385C261.951 94.1241 268.251 94.6824 274.565 96.6133C280.928 98.3624 285.495 101.671 288.263 106.538C290.966 111.29 291.698 117.7 290.458 125.768C289.152 133.72 286.474 141.686 282.422 149.666C278.305 157.53 273.769 164.252 268.813 169.832C283.876 171.235 297.879 174.008 310.82 178.151C323.695 182.179 331.484 186.569 334.186 191.321C335.043 192.827 335.114 194.705 334.398 196.952C333.617 199.084 332.125 200.776 329.923 202.029C327.837 203.216 325.513 203.31 322.952 202.313C316.908 197.62 308.382 193.957 297.373 191.322C286.414 188.505 274.435 186.729 261.438 185.992L281.467 218.777ZM251.106 167.019C258.674 162.254 265.52 154.065 271.646 142.451C277.887 130.771 279.624 122.497 276.855 117.629C274.02 112.646 269.411 110.206 263.027 110.309C256.643 110.412 250.09 112.375 243.368 116.199C236.762 119.956 231.95 123.767 228.933 127.631C232.179 133.607 239.57 146.737 251.106 167.019Z" fill="black"/>
<path d="M84.115 174.76C91.6483 170.475 98.7477 168.125 105.413 167.708C112.195 167.225 116.706 168.954 118.948 172.895C119.937 174.633 120.33 176.403 120.128 178.206C120.042 179.942 119.129 181.305 117.391 182.293C115.768 183.216 111.451 183.985 104.437 184.599C97.3579 185.098 91.5004 186.666 86.8645 189.303C82.3445 191.874 78.4747 195.992 75.2551 201.658C72.0355 207.325 71.6122 212.244 73.9854 216.416C77.2156 222.095 82.5442 224.586 89.9711 223.89C95.4959 223.355 102.834 221.559 111.986 218.501C121.071 215.327 129.606 214.691 137.59 216.592C145.508 218.377 152.236 224.138 157.774 233.873C166.212 248.708 167.979 262.198 163.076 274.344C160.334 281.119 154.385 287.11 145.229 292.318C136.189 297.46 125.732 300.11 113.857 300.268C106.167 300.501 101.432 299.053 99.6517 295.924C98.9924 294.765 98.7309 293.226 98.867 291.308C99.119 289.324 99.8506 287.374 101.062 285.458C102.273 283.542 103.771 282.536 105.558 282.441C107.394 282.163 110.396 281.913 114.564 281.689C118.732 281.466 121.734 281.216 123.571 280.938C129.493 280.024 134.598 278.347 138.886 275.908C143.175 273.469 146.102 269.043 147.67 262.629C149.287 256.033 148.349 249.664 144.855 243.522C140.24 235.409 132.954 232.037 122.995 233.407C118.132 234.026 112.978 235.347 107.533 237.37C96.1629 241.383 86.6509 242.728 78.9964 241.407C71.2761 239.969 64.9108 234.846 59.9008 226.038C54.8907 217.23 54.735 208.191 59.4337 198.923C64.0664 189.539 72.2935 181.484 84.115 174.76ZM158.671 205.522C156.455 205.402 154.787 204.356 153.666 202.386C152.545 200.416 152.161 198.257 152.513 195.909C145.457 184.583 138.27 172.488 130.953 159.623C130.066 156.446 129.956 153.825 130.621 151.759C131.403 149.627 133.086 147.596 135.669 145.666C151.363 137.66 168.134 128.581 185.982 118.429C190.914 116.851 194.204 117.511 195.852 120.408C198.62 125.276 195.484 130.818 186.442 137.035C183.958 138.601 181.209 140.241 178.196 141.955L166.896 148.383C164.694 149.635 158.346 152.633 147.851 157.375C156.091 171.862 161.992 181.697 165.554 186.881C171.763 183.503 183.617 176.837 201.118 166.882C205.751 165.32 208.925 166.046 210.639 169.059C212.287 171.957 211.892 175.173 209.454 178.707C209.238 179.137 208.733 179.731 207.937 180.49L177.566 197.075C175.711 198.13 174.27 199.103 173.243 199.994L190.947 229.5C194.77 236.222 197.332 241.13 198.632 244.226L238.668 220.763C242.706 219.233 245.45 219.743 246.901 222.293C247.889 224.031 248.067 226.231 247.433 228.893C246.915 231.488 245.745 233.611 243.923 235.261L199.814 261.27C197.148 262.787 195.03 263.378 193.46 263.044C191.823 262.594 190.346 261.21 189.028 258.892C187.645 255.383 184.911 250.036 180.824 242.851L173.902 230.682L158.671 205.522ZM276.467 207.777C277.653 209.863 277.814 212.302 276.948 215.096C276.017 217.773 274.45 219.738 272.248 220.99C270.162 222.177 267.922 221.61 265.529 219.29C256.479 204.19 247.637 189.048 239.001 173.866L213.561 130.353C208.551 121.545 209.006 113.31 214.925 105.648C219.535 99.1909 226.129 93.5232 234.705 88.645C239.109 86.1399 244.429 84.5711 250.665 83.9385C256.951 83.1241 263.251 83.6824 269.565 85.6133C275.928 87.3624 280.495 90.6708 283.263 95.5385C285.966 100.29 286.698 106.7 285.458 114.768C284.152 122.72 281.474 130.686 277.422 138.666C273.305 146.53 268.769 153.252 263.813 158.832C278.876 160.235 292.879 163.008 305.82 167.151C318.695 171.179 326.484 175.569 329.186 180.321C330.043 181.827 330.114 183.705 329.398 185.952C328.617 188.084 327.125 189.776 324.923 191.029C322.837 192.216 320.513 192.31 317.952 191.313C311.908 186.62 303.382 182.957 292.373 180.322C281.414 177.505 269.435 175.729 256.438 174.992L276.467 207.777ZM246.106 156.019C253.674 151.254 260.52 143.065 266.646 131.451C272.887 119.771 274.624 111.497 271.855 106.629C269.02 101.646 264.411 99.2056 258.027 99.3087C251.643 99.4118 245.09 101.375 238.368 105.199C231.762 108.956 226.95 112.767 223.933 116.631C227.179 122.607 234.57 135.737 246.106 156.019Z" fill="white"/>
</svg>
