<svg width="227" height="141" viewBox="0 0 227 141" fill="none" xmlns="http://www.w3.org/2000/svg">
<path d="M11.7994 66.6752C10.7769 57.1912 8.62895 60.4874 9.31221 50.9452C9.31221 41.5987 8.49703 26.6168 19.261 22.6447C21.5473 21.801 22.9155 19.9014 25.7067 19.5188C32.4353 18.5966 38.5955 16.0451 45.6043 15.3847C67.1612 13.3533 88.0412 17.2765 109.501 15.9897C115.912 15.6052 122.415 15.8552 128.838 15.8552C135.882 15.8552 142.722 13.7776 149.822 14.0738C157.932 14.4122 166.081 15.9065 174.238 16.3258C182.204 16.7352 190.204 17.5542 198.129 18.4097C201.071 18.7272 211.177 18.6531 209.129 24.0563C207.807 27.5443 201.933 33.4561 198.48 35.3497C195.56 36.9503 193.721 39.7639 190.528 40.9627C187.223 42.2035 184.109 43.7998 180.859 45.1641C173.838 48.1115 166.417 51.6717 158.895 53.2308C148.865 55.3094 138.511 55.5375 128.453 57.6002C119.816 59.3714 111.206 60.5098 102.495 61.8688C87.8745 64.1497 73.7945 70.0014 59.1964 71.8513C54.5369 72.4418 49.7692 72.7782 45.3942 74.5402C43.5596 75.279 41.8555 76.0158 39.9293 76.4896L39.8287 76.5144C31.4962 78.5643 23.1808 80.61 15.0573 83.3463C10.0161 85.0443 12.0732 83.5061 12.43 80.2541C12.9127 75.8537 12.2634 70.9785 11.7994 66.6752Z" fill="#E99620"/>
<path d="M9.31221 50.9452C7.07053 56.3222 9.72158 45.2281 9.31221 50.9452ZM9.31221 50.9452C8.62895 60.4874 10.7769 57.1912 11.7994 66.6752C12.2634 70.9785 12.9127 75.8537 12.43 80.2541C12.0732 83.5061 10.0161 85.0443 15.0573 83.3463C23.2134 80.599 31.5631 78.5479 39.9293 76.4896C41.8555 76.0158 43.5596 75.279 45.3942 74.5402C49.7692 72.7782 54.5369 72.4418 59.1964 71.8513C73.7945 70.0014 87.8745 64.1497 102.495 61.8688C111.206 60.5098 119.816 59.3714 128.453 57.6002C138.511 55.5375 148.865 55.3094 158.895 53.2308C166.417 51.6717 173.838 48.1115 180.859 45.1641C184.109 43.7998 187.223 42.2035 190.528 40.9627C193.721 39.7639 195.56 36.9503 198.48 35.3497C201.933 33.4561 207.807 27.5443 209.129 24.0563C211.177 18.6531 201.071 18.7272 198.129 18.4097C190.204 17.5542 182.204 16.7352 174.238 16.3258C166.081 15.9065 157.932 14.4122 149.822 14.0738C142.722 13.7776 135.882 15.8552 128.838 15.8552C122.415 15.8552 115.912 15.6052 109.501 15.9897C88.0412 17.2765 67.1612 13.3533 45.6043 15.3847C38.5955 16.0451 32.4353 18.5966 25.7067 19.5188C22.9155 19.9014 21.5473 21.801 19.261 22.6447C8.49703 26.6168 9.31221 41.5987 9.31221 50.9452Z" stroke="black" stroke-width="5" stroke-linecap="round"/>
<path d="M12.2681 68.7873C12.2681 52.0377 1.95323 34.5929 13.3942 18.7414C28.9544 -2.8176 58.4582 14.8317 81.3315 14.2998C104.248 13.7669 127.221 14.2372 150.145 14.2372C166.963 14.2372 182.734 14.2872 199.19 17.6153C208.918 19.5829 215.782 19.7216 212.452 31.378C209.809 40.6276 212.702 51.0582 212.702 60.5922C212.702 72.9943 215.633 85.9233 217.269 98.1892C218.354 106.333 220.069 118.182 214.078 124.839C210.919 128.349 203.049 128.343 198.314 129.718C192.928 131.282 188.186 132.471 182.549 132.471C176.136 132.471 169.609 132.9 163.219 132.408C158.703 132.061 154.838 130.219 150.145 130.219C131.421 130.219 112.713 127.967 93.9055 127.967H55.9332C44.7296 127.967 34.929 131.316 23.5285 129.343C16.7676 128.173 15.6462 126.105 15.6462 119.521C15.6462 114.899 15.0143 109.49 14.4576 104.758C13.9002 100.02 13.023 94.9556 12.0179 90.307C10.4961 83.2685 12.2681 75.9571 12.2681 68.7873Z" stroke="black" stroke-width="16" stroke-linecap="round"/>
<path d="M20.2096 109.68C19.1931 109.979 17.9735 114.529 17.1566 115.264C16.414 117.492 17.0371 118.571 17.1566 120.961C17.1948 121.725 18.2095 122.525 18.6459 123.046C19.7022 124.307 20.1893 125.644 20.9915 127.03C21.528 127.956 25.4996 128.601 26.6508 129.152C30.1045 130.804 33.488 130.071 37.1688 129.655C48.2537 128.4 59.699 128.061 70.8452 127.998C82.2174 127.933 94.1961 127.05 105.471 128.891C115.04 130.454 124.708 130.008 134.382 130.008C141.855 130.008 149.39 130.486 156.851 130.269C165.412 130.02 173.959 130.008 182.523 130.008C188.598 130.008 194.868 130.419 200.822 128.984C203.776 128.273 206.178 127.338 207.71 124.907C209.714 121.73 214.524 119.439 214.524 115.432C214.524 112.285 213.318 109.197 213.183 106.031C213.04 102.666 211.947 99.1965 211.545 95.8292C211.002 91.2808 210.99 86.9005 210.763 82.314C210.564 78.2797 209.629 74.4003 209.162 70.3997C208.991 68.9299 208.97 66.9652 208.418 65.5596C208.152 64.8833 205.498 65.8143 205.234 65.876C203.202 66.3527 201.172 66.8368 199.296 67.7562C197.085 68.8399 195.016 70.2979 192.743 71.1816C187.188 73.3419 181.015 73.5432 175.449 75.9287C171.728 77.5233 168.188 79.8506 164.335 81.0481C155.98 83.6447 147.141 84.415 138.831 87.1169C134.624 88.485 130.395 89.1149 126.023 89.7976C120.342 90.6849 114.792 92.1062 109.138 93.1113C98.086 95.0762 86.929 95.8686 75.8343 97.5047C61.2914 99.6493 45.9759 101.066 32.0122 105.845C28.0926 107.186 24.1848 108.51 20.2096 109.68Z" fill="#008E00" stroke="black" stroke-width="5" stroke-linecap="round"/>
<path d="M108.5 118C133.099 118 153 97.8307 153 73C153 48.1693 133.099 28 108.5 28C83.9013 28 64 48.1693 64 73C64 97.8307 83.9013 118 108.5 118Z" fill="white" stroke="black" stroke-width="4"/>
<path d="M86.9239 50.6449C87.3101 50.3156 88.6316 49.499 88.8141 49C102.752 49 116.641 50.2306 130.597 49.841C131.273 49.8221 138.18 49.8645 138.058 50.0389C137.32 51.1 136.349 51.942 135.422 52.8339C134.847 53.3879 136.091 53.1965 135.422 53.644C133.096 55.2008 130.364 57.7407 127.881 59.0598C127.098 59.4759 124.972 59.7244 124.106 59.9082C122.599 60.2278 121.148 60.3534 119.604 60.3534C109.632 60.3534 99.6876 61.074 89.7094 60.7492C86.4614 60.6435 83.2235 60.4104 79.9725 60.3658C79.0531 60.3532 76.8742 60.9764 77.2242 60.1308C77.4512 59.5827 77.7579 59.0271 78.0698 58.523C78.953 57.0957 80.5406 56.2305 81.8253 55.1343C83.5481 53.6644 85.2 52.1144 86.9239 50.6449Z" fill="url(#paint0_linear_203_84)" stroke="black" stroke-width="2" stroke-linecap="round"/>
<path d="M79.7162 69.8862C79.6974 69.8049 79.6677 69.6859 79.6225 69.5181C79.0856 67.5238 80.8693 68.3825 82.6465 68.5414C89.4148 69.1465 96.6103 68.4697 103.289 67.7993C109.057 67.2205 114.903 66.8099 120.699 66.8099C122.957 66.8099 125.553 66.4482 127.787 66.8347C128.095 66.8878 128.241 67.265 128.434 67.4778C130.53 69.7937 132.85 71.5776 135.298 73.5873L135.424 73.6904C136.282 74.3951 137.14 75.1 138.059 75.7269C138.343 75.9211 139.26 76.1849 138.929 76.2835C138.34 76.4592 137.144 76.1213 136.529 76.0485C134.565 75.8159 132.483 75.8974 130.523 76.0856C123.915 76.7199 117.31 76.9035 110.688 77.3594C104.967 77.7534 99.287 78.1768 93.5399 77.8418C92.1659 77.7617 89.6697 77.9943 88.3668 77.446C88.0466 77.3113 87.8621 76.8307 87.5833 76.6174C86.9746 76.1517 86.2792 76.0111 85.8051 75.4425C85.0217 74.503 84.1105 73.3326 83.119 72.6227C81.9681 71.7985 81.0036 70.8404 79.9977 69.84C79.7417 69.5853 79.7063 69.7431 79.7162 69.8862C79.7256 70.0226 79.7762 70.1458 79.7162 69.8862Z" fill="url(#paint1_linear_203_84)"/>
<path d="M79.6225 69.5181C79.9633 70.7839 79.4212 69.2666 79.9977 69.84C81.0036 70.8404 81.9681 71.7985 83.119 72.6227C84.1105 73.3326 85.0217 74.503 85.8051 75.4425C86.2792 76.0111 86.9746 76.1517 87.5833 76.6174C87.8621 76.8307 88.0466 77.3113 88.3668 77.446C89.6697 77.9943 92.1659 77.7617 93.5399 77.8418C99.287 78.1768 104.967 77.7534 110.688 77.3594C117.31 76.9035 123.915 76.7199 130.523 76.0856C132.483 75.8974 134.565 75.8159 136.529 76.0485C137.144 76.1213 138.34 76.4592 138.929 76.2835C139.26 76.1849 138.343 75.921 138.059 75.7269C137.096 75.0695 136.198 74.3262 135.298 73.5873C132.85 71.5776 130.53 69.7937 128.434 67.4778C128.241 67.265 128.095 66.8878 127.787 66.8347C125.553 66.4482 122.956 66.8099 120.699 66.8099C114.903 66.8099 109.057 67.2205 103.289 67.7993C96.6103 68.4697 89.4148 69.1465 82.6465 68.5414C80.8693 68.3825 79.0856 67.5238 79.6225 69.5181Z" stroke="black" stroke-width="2" stroke-linecap="round"/>
<path d="M83.1558 89.6032C84.7623 87.3477 88.094 85.8506 90.3808 84.3965C95.6145 84.3965 100.84 84.6191 106.074 84.6191C112.712 84.6191 119.36 84.5137 125.996 84.6686C129.223 84.7439 132.457 84.7489 135.683 84.8541C135.683 85.1924 135.645 86.7209 134.999 87.1916C132.053 89.3403 129.355 91.6488 126.866 94.3647C124.854 96.5607 121.959 96.6404 119.107 96.6404C114.232 96.6404 109.328 96.186 104.458 96.4672C101.841 96.6183 99.4427 97.1195 96.7851 96.9743C91.1831 96.6682 85.5848 97.259 79.9972 96.6527C79.9019 96.6424 76.9663 96.4826 77.0003 96.1951C77.0189 96.0375 77.3267 95.7793 77.4107 95.6262C77.9025 94.7294 79.1436 94.0618 79.8853 93.4001C81.1531 92.269 82.175 90.9804 83.1558 89.6032Z" fill="url(#paint2_linear_203_84)"/>
<path d="M135.683 84.8541C135.683 85.1924 135.645 86.7209 134.999 87.1916C132.053 89.3403 129.355 91.6488 126.866 94.3647C124.854 96.5607 121.959 96.6404 119.107 96.6404C114.232 96.6404 109.328 96.186 104.458 96.4672C101.841 96.6183 99.4427 97.1195 96.7851 96.9743C91.1831 96.6682 85.5848 97.259 79.9972 96.6527C79.9019 96.6424 76.9663 96.4826 77.0003 96.1951C77.0189 96.0375 77.3267 95.7793 77.4107 95.6262C77.9025 94.7294 79.1436 94.0618 79.8853 93.4001C81.1531 92.269 82.175 90.9804 83.1558 89.6032C84.7623 87.3477 88.094 85.8506 90.3808 84.3965C95.6145 84.3965 100.84 84.6191 106.074 84.6191C112.712 84.6191 119.36 84.5137 125.996 84.6686C129.223 84.7439 132.457 84.7489 135.683 84.8541ZM135.683 84.8541C135.471 85.7657 135.888 84.8608 135.683 84.8541Z" stroke="black" stroke-width="2" stroke-linecap="round"/>
<defs>
<linearGradient id="paint0_linear_203_84" x1="147.423" y1="46.5538" x2="135.365" y2="87.4355" gradientUnits="userSpaceOnUse">
<stop stop-color="#14EBAB"/>
<stop offset="0.142768" stop-color="#19E6AD"/>
<stop offset="0.807551" stop-color="#D427FC"/>
</linearGradient>
<linearGradient id="paint1_linear_203_84" x1="148.148" y1="64.3189" x2="136.841" y2="103.519" gradientUnits="userSpaceOnUse">
<stop stop-color="#14EBAB"/>
<stop offset="0.142768" stop-color="#19E6AD"/>
<stop offset="0.807551" stop-color="#D427FC"/>
</linearGradient>
<linearGradient id="paint2_linear_203_84" x1="144.777" y1="81.791" x2="130.844" y2="124.587" gradientUnits="userSpaceOnUse">
<stop stop-color="#14EBAB"/>
<stop offset="0.142768" stop-color="#19E6AD"/>
<stop offset="0.807551" stop-color="#D427FC"/>
</linearGradient>
</defs>
</svg>
