<svg width="190" height="147" viewBox="0 0 190 147" fill="none" xmlns="http://www.w3.org/2000/svg">
<path d="M7.88921 53.4533C8.58905 41.3152 8.39958 22.4687 7.59402 10.2953C11.6354 10.2953 15.6306 12.6475 19.6377 13.5294C21.7361 13.9912 23.9011 15.7046 26.0138 15.0906C31.1868 13.5873 36.3749 14.5446 41.5407 12.5257C47.492 10.1998 53.7984 9.67598 59.8424 8.511C70.3682 6.48214 81.0392 7.20087 91.6046 6.50366C101.423 5.85573 111.362 5.80891 121.182 6.50366C133.584 7.38103 145.823 11.4896 158.199 12.8603C163.752 13.4753 169.349 13.4651 174.907 13.0833C176.732 12.9579 179.797 11.4564 181.637 12.5257C182.245 12.879 181.859 20.8053 181.873 21.7818C182.011 31.1196 184.061 40.0576 183.999 49.6616C183.925 60.8725 182.315 71.568 182.405 82.8943C182.542 100.349 183.485 117.502 180.073 134.36C178.928 140.017 176.612 137.065 174.051 136.312C169.625 135.012 165.243 136.275 160.826 136.702C152.421 137.517 143.975 135.865 135.558 136.368C124.388 137.036 112.864 139.749 101.7 137.204C92.3967 135.083 83.0215 131.069 73.5981 131.796C67.4435 132.27 61.4206 134.582 55.326 135.977C41.0384 139.249 27.258 141.376 12.9074 140.829C8.73821 140.669 6 143.015 6 134.249C6 123.427 7.68206 112.957 7.5645 102.076C7.38735 85.6791 6.9498 69.7464 7.88921 53.4533Z" fill="white" stroke="#13105D" stroke-width="12" stroke-linecap="round"/>
<path d="M114.553 44.9766H124.979L102.199 68.7174L129 101.017H108.016L91.583 81.4248L72.7753 101.017H62.343L86.7097 75.6226L61 44.9791H82.5163L97.3715 62.8868L114.553 44.9766ZM110.895 95.3283H116.672L79.377 50.368H73.1777L110.895 95.3283Z" fill="#13105D"/>
</svg>
